<?xml version="1.0" standalone="no"?>
<!DOCTYPE svg PUBLIC "-//W3C//DTD SVG 20010904//EN"
 "http://www.w3.org/TR/2001/REC-SVG-20010904/DTD/svg10.dtd">
<svg version="1.0" xmlns="http://www.w3.org/2000/svg"
 width="260.000000pt" height="260.000000pt" viewBox="0 0 260.000000 260.000000"
 preserveAspectRatio="xMidYMid meet">
<metadata>
Created by potrace 1.11, written by Peter Selinger 2001-2013
</metadata>
<g transform="translate(0.000000,260.000000) scale(0.100000,-0.100000)"
fill="#000000" stroke="none">
<path d="M984 2009 c-8 -8 -14 -29 -14 -46 l0 -30 79 -6 c86 -5 114 -16 133
-50 20 -36 33 -600 21 -869 -14 -306 -23 -322 -174 -335 l-70 -6 3 -45 3 -45
323 -1 323 -1 6 23 c3 13 0 34 -7 48 -11 19 -21 24 -54 24 -61 0 -114 18 -127
42 -8 15 -13 140 -17 387 -4 376 8 720 29 779 13 39 41 52 108 52 50 0 81 20
81 52 0 39 -21 42 -332 42 -261 1 -301 -1 -314 -15z"/>
</g>
</svg>
